# xmcd
#
# Track frame offsets: 
#        150
#        16812
#        33613
#        48970
#        64554
#        81307
#        99051
#        123964
#        144158
#        161540
#        174423
#        195031
#        208388
#        227204
#        250607
#
# Disc length: 3540 seconds
#
# Revision: 0
# Processed by: cddbd v1.5.2PL0 Copyright (c) Steve Scherf et al.
# Submitted via: ExactAudioCopy v0.99pb5
#
DISCID=b40dd20f
DTITLE=John David Kent  - John David Kent 
DYEAR=2011
DGENRE=Country
TTITLE0=Goodbye Gone
TTITLE1=I Want to Be
TTITLE2=A Place to Call Home
TTITLE3=Back to the Country
TTITLE4=Down to the Water
TTITLE5=My Girl
TTITLE6=In the Promise LandIn the Promise Land
TTITLE7=Why Won't You Stay
TTITLE8=Runaway
TTITLE9=Lover Undercover
TTITLE10=Ride It On the River
TTITLE11=Two Shotguns
TTITLE12=Killing My Head
TTITLE13=Love's Just Another Word
TTITLE14=You
EXTD=
EXTT0=
EXTT1=
EXTT2=
EXTT3=
EXTT4=
EXTT5=
EXTT6=
EXTT7=
EXTT8=
EXTT9=
EXTT10=
EXTT11=
EXTT12=
EXTT13=
EXTT14=
PLAYORDER=
